<svg width="30" height="34" viewBox="0 0 30 34" fill="none" xmlns="http://www.w3.org/2000/svg">
<path d="M9.95774 14.8816L7.55247 17.2869L12.0912 21.8256H12.0908C12.4098 22.1441 12.8423 22.3234 13.2934 22.3234C13.7446 22.3234 14.1771 22.1442 14.4961 21.8256L23.006 13.3157L20.6007 10.9104L13.2934 18.2173L9.95774 14.8816Z" fill="white"/>
<path d="M15.6735 1.71484V1.71387L27.0123 5.67676V5.67773L28.3463 6.14746V18.8291C28.3431 20.9595 27.7647 23.0467 26.6754 24.8711L26.4508 25.2324C25.2939 27.0207 23.6763 28.4613 21.7721 29.4043L21.3883 29.5859L15.817 32.0938H15.816L14.9957 32.4639L14.1754 32.0938H14.1744L8.60413 29.5859H8.60315C6.6624 28.7101 4.99712 27.3273 3.77991 25.5869L3.5426 25.2344C2.38534 23.4461 1.73396 21.3808 1.65393 19.2578L1.64612 18.833V6.15234L2.9801 5.68262L2.97913 5.68164L14.3239 1.71289L14.3229 1.71191L14.9957 1.48047L15.6735 1.71484Z" stroke="white" stroke-width="2.8"/>
<path d="M9.95775 14.8816L7.55249 17.2869L12.0912 21.8256C12.4102 22.1441 12.8423 22.3234 13.2935 22.3234C13.7446 22.3234 14.1771 22.1442 14.4961 21.8256L23.006 13.3157L20.6007 10.9104L13.2935 18.2173L9.95775 14.8816Z" fill="white"/>
</svg>
