<svg width="56" height="14" viewBox="0 0 56 14" fill="none" xmlns="http://www.w3.org/2000/svg">
<path d="M2.91335 11H0.606534L4.12145 0.818182H6.8956L10.4055 11H8.09872L5.5483 3.14489H5.46875L2.91335 11ZM2.76918 6.99787H8.21804V8.67827H2.76918V6.99787ZM11.5913 13.8636V3.36364H13.6793V4.64631H13.7738C13.8666 4.44081 14.0008 4.23201 14.1765 4.01989C14.3555 3.80445 14.5875 3.62547 14.8725 3.48295C15.1609 3.33712 15.5188 3.2642 15.9464 3.2642C16.5032 3.2642 17.0169 3.41004 17.4876 3.7017C17.9582 3.99006 18.3344 4.4259 18.6161 5.00923C18.8978 5.58925 19.0387 6.31676 19.0387 7.19176C19.0387 8.04356 18.9012 8.76278 18.6261 9.34943C18.3543 9.93277 17.9831 10.3752 17.5124 10.6768C17.0451 10.9751 16.5214 11.1243 15.9414 11.1243C15.5304 11.1243 15.1808 11.0563 14.8924 10.9205C14.6074 10.7846 14.3737 10.6139 14.1914 10.4084C14.0091 10.1996 13.8699 9.98911 13.7738 9.77699H13.7092V13.8636H11.5913ZM13.6644 7.18182C13.6644 7.63589 13.7274 8.03196 13.8533 8.37003C13.9793 8.7081 14.1616 8.97159 14.4002 9.16051C14.6388 9.34612 14.9289 9.43892 15.2702 9.43892C15.6149 9.43892 15.9066 9.34446 16.1452 9.15554C16.3839 8.9633 16.5645 8.69815 16.6871 8.36009C16.8131 8.0187 16.8761 7.62595 16.8761 7.18182C16.8761 6.741 16.8147 6.35322 16.6921 6.01847C16.5695 5.68371 16.3888 5.42187 16.1502 5.23295C15.9116 5.04403 15.6183 4.94957 15.2702 4.94957C14.9255 4.94957 14.6339 5.04072 14.3952 5.22301C14.1599 5.4053 13.9793 5.66383 13.8533 5.99858C13.7274 6.33333 13.6644 6.72775 13.6644 7.18182ZM20.4506 13.8636V3.36364H22.5387V4.64631H22.6332C22.726 4.44081 22.8602 4.23201 23.0359 4.01989C23.2148 3.80445 23.4469 3.62547 23.7319 3.48295C24.0202 3.33712 24.3782 3.2642 24.8058 3.2642C25.3626 3.2642 25.8763 3.41004 26.3469 3.7017C26.8176 3.99006 27.1938 4.4259 27.4755 5.00923C27.7572 5.58925 27.8981 6.31676 27.8981 7.19176C27.8981 8.04356 27.7605 8.76278 27.4854 9.34943C27.2137 9.93277 26.8424 10.3752 26.3718 10.6768C25.9045 10.9751 25.3808 11.1243 24.8008 11.1243C24.3898 11.1243 24.0401 11.0563 23.7518 10.9205C23.4667 10.7846 23.2331 10.6139 23.0508 10.4084C22.8685 10.1996 22.7293 9.98911 22.6332 9.77699H22.5685V13.8636H20.4506ZM22.5238 7.18182C22.5238 7.63589 22.5868 8.03196 22.7127 8.37003C22.8387 8.7081 23.021 8.97159 23.2596 9.16051C23.4982 9.34612 23.7882 9.43892 24.1296 9.43892C24.4743 9.43892 24.766 9.34446 25.0046 9.15554C25.2433 8.9633 25.4239 8.69815 25.5465 8.36009C25.6725 8.0187 25.7354 7.62595 25.7354 7.18182C25.7354 6.741 25.6741 6.35322 25.5515 6.01847C25.4289 5.68371 25.2482 5.42187 25.0096 5.23295C24.771 5.04403 24.4776 4.94957 24.1296 4.94957C23.7849 4.94957 23.4933 5.04072 23.2546 5.22301C23.0193 5.4053 22.8387 5.66383 22.7127 5.99858C22.5868 6.33333 22.5238 6.72775 22.5238 7.18182ZM31.4279 0.818182V11H29.31V0.818182H31.4279ZM34.432 13.8636C34.1635 13.8636 33.9116 13.8421 33.6763 13.799C33.4443 13.7592 33.2521 13.7079 33.0996 13.6449L33.5769 12.0639C33.8255 12.1402 34.0492 12.1816 34.248 12.1882C34.4502 12.1948 34.6242 12.1484 34.7701 12.049C34.9192 11.9496 35.0402 11.7805 35.133 11.5419L35.2573 11.2188L32.5179 3.36364H34.7452L36.3262 8.97159H36.4057L38.0016 3.36364H40.2438L37.2757 11.8253C37.1332 12.2363 36.9393 12.5942 36.6941 12.8991C36.4521 13.2074 36.1455 13.4444 35.7743 13.6101C35.4031 13.7791 34.9557 13.8636 34.432 13.8636ZM53.7617 6C53.7617 6.13281 53.7148 6.25781 53.6211 6.35156L52.9102 7.0625L50.082 9.89062C49.9883 9.98437 49.8633 10.0312 49.7305 10.0312C49.5977 10.0312 49.4727 9.98437 49.3789 9.89062L48.668 9.17969C48.5742 9.08594 48.5195 8.96094 48.5195 8.82812C48.5195 8.69531 48.5742 8.57031 48.668 8.47656L50.1445 7H46.2227C45.9492 7 45.7227 6.77344 45.7227 6.5V5.5C45.7227 5.22656 45.9492 5 46.2227 5H50.1445L48.668 3.52344C48.5742 3.42969 48.5273 3.30469 48.5273 3.17187C48.5273 3.03906 48.5742 2.91406 48.668 2.82031L49.3789 2.10937C49.4727 2.01562 49.5977 1.96875 49.7305 1.96875C49.8633 1.96875 49.9883 2.01562 50.082 2.10937L52.9102 4.9375L53.6211 5.64844C53.7148 5.74219 53.7617 5.86719 53.7617 6ZM55.7227 6C55.7227 2.6875 53.0352 -5.96046e-07 49.7227 -5.96046e-07C46.4102 -5.96046e-07 43.7227 2.6875 43.7227 6C43.7227 9.3125 46.4102 12 49.7227 12C53.0352 12 55.7227 9.3125 55.7227 6Z" fill="white"/>
</svg>
